<svg width="50" height="50" viewBox="0 0 50 50" fill="none" xmlns="http://www.w3.org/2000/svg">
<path d="M44.6429 0H5.35714C2.4 0 0 2.4 0 5.35714V44.6429C0 47.6 2.4 50 5.35714 50H44.6429C47.6 50 50 47.6 50 44.6429V5.35714C50 2.4 47.6 0 44.6429 0ZM14.175 39.3411C13.879 39.853 13.3917 40.2264 12.8204 40.3792C12.2491 40.5319 11.6405 40.4514 11.1286 40.1554C10.6166 39.8594 10.2432 39.3721 10.0905 38.8008C9.93778 38.2295 10.0183 37.6209 10.3143 37.1089L11.9107 34.3518C13.7071 33.8054 15.1804 34.2286 16.3304 35.6232L14.175 39.3411ZM29.6768 33.3268H9.375C8.14643 33.3268 7.14286 32.3214 7.14286 31.0946C7.14286 29.8679 8.14821 28.8625 9.375 28.8625H15.0679L22.3661 16.2286L20.0786 12.2786C19.7842 11.7662 19.7046 11.1582 19.8571 10.5873C20.0097 10.0165 20.3821 9.52926 20.8929 9.23214C21.4052 8.93774 22.0132 8.85813 22.5841 9.01072C23.1549 9.1633 23.6422 9.53567 23.9393 10.0464L24.9321 11.7643L25.925 10.0464C26.0716 9.79293 26.2666 9.57078 26.499 9.39267C26.7315 9.21455 26.9967 9.08396 27.2796 9.00835C27.5625 8.93274 27.8575 8.91358 28.1478 8.95198C28.438 8.99038 28.7179 9.08558 28.9714 9.23214C29.2249 9.37871 29.4471 9.57377 29.6252 9.80618C29.8033 10.0386 29.9339 10.3038 30.0095 10.5867C30.0851 10.8696 30.1043 11.1646 30.0659 11.4549C30.0275 11.7452 29.9323 12.0251 29.7857 12.2786L20.2107 28.8643H27.1411C29.3946 28.8643 30.6571 31.5089 29.675 33.3286L29.6768 33.3268ZM40.625 33.3268H37.3875L39.575 37.1107C40.1893 38.1821 39.8196 39.5446 38.7607 40.1571C37.6893 40.7714 36.3268 40.4018 35.7143 39.3429C32.0429 32.9929 29.2964 28.2161 27.4554 25.0464C25.5911 21.8089 26.9196 18.5732 28.2482 17.4804C29.7107 20.0143 31.8982 23.8089 34.8214 28.8643H40.625C41.217 28.8643 41.7848 29.0995 42.2034 29.5181C42.622 29.9367 42.8571 30.5044 42.8571 31.0964C42.8571 31.6884 42.622 32.2562 42.2034 32.6748C41.7848 33.0934 41.217 33.3286 40.625 33.3286V33.3268Z" fill="#9ACD2F"/>
</svg>
