<svg width="40" height="40" viewBox="0 0 40 40" fill="none" xmlns="http://www.w3.org/2000/svg">
<path d="M26.6667 20C26.6667 18.1597 26.0156 16.5885 24.7135 15.2865C23.4115 13.9844 21.8403 13.3333 20 13.3333C18.1597 13.3333 16.5885 13.9844 15.2865 15.2865C13.9844 16.5885 13.3333 18.1597 13.3333 20C13.3333 21.8403 13.9844 23.4115 15.2865 24.7135C16.5885 26.0156 18.1597 26.6667 20 26.6667C21.8403 26.6667 23.4115 26.0156 24.7135 24.7135C26.0156 23.4115 26.6667 21.8403 26.6667 20ZM30.2604 20C30.2604 22.8472 29.2622 25.2691 27.2656 27.2656C25.2691 29.2622 22.8472 30.2604 20 30.2604C17.1528 30.2604 14.7309 29.2622 12.7344 27.2656C10.7378 25.2691 9.73958 22.8472 9.73958 20C9.73958 17.1528 10.7378 14.7309 12.7344 12.7344C14.7309 10.7378 17.1528 9.73958 20 9.73958C22.8472 9.73958 25.2691 10.7378 27.2656 12.7344C29.2622 14.7309 30.2604 17.1528 30.2604 20ZM33.0729 9.32292C33.0729 9.98264 32.8385 10.5469 32.3698 11.0156C31.901 11.4844 31.3368 11.7188 30.6771 11.7188C30.0174 11.7188 29.4531 11.4844 28.9844 11.0156C28.5156 10.5469 28.2812 9.98264 28.2812 9.32292C28.2812 8.66319 28.5156 8.09896 28.9844 7.63021C29.4531 7.16146 30.0174 6.92708 30.6771 6.92708C31.3368 6.92708 31.901 7.16146 32.3698 7.63021C32.8385 8.09896 33.0729 8.66319 33.0729 9.32292ZM20 3.59375C19.8785 3.59375 19.2144 3.58941 18.0078 3.58073C16.8012 3.57205 15.8854 3.57205 15.2604 3.58073C14.6354 3.58941 13.7977 3.61545 12.7474 3.65885C11.697 3.70226 10.803 3.78906 10.0651 3.91927C9.32726 4.04948 8.7066 4.21007 8.20312 4.40104C7.33507 4.74826 6.57118 5.25174 5.91146 5.91146C5.25174 6.57118 4.74826 7.33507 4.40104 8.20312C4.21007 8.7066 4.04948 9.32726 3.91927 10.0651C3.78906 10.803 3.70226 11.697 3.65885 12.7474C3.61545 13.7977 3.58941 14.6354 3.58073 15.2604C3.57205 15.8854 3.57205 16.8012 3.58073 18.0078C3.58941 19.2144 3.59375 19.8785 3.59375 20C3.59375 20.1215 3.58941 20.7856 3.58073 21.9922C3.57205 23.1988 3.57205 24.1146 3.58073 24.7396C3.58941 25.3646 3.61545 26.2023 3.65885 27.2526C3.70226 28.3029 3.78906 29.197 3.91927 29.9349C4.04948 30.6727 4.21007 31.2934 4.40104 31.7969C4.74826 32.6649 5.25174 33.4288 5.91146 34.0885C6.57118 34.7483 7.33507 35.2517 8.20312 35.599C8.7066 35.7899 9.32726 35.9505 10.0651 36.0807C10.803 36.2109 11.697 36.2977 12.7474 36.3411C13.7977 36.3845 14.6354 36.4106 15.2604 36.4193C15.8854 36.428 16.8012 36.428 18.0078 36.4193C19.2144 36.4106 19.8785 36.4062 20 36.4062C20.1215 36.4062 20.7856 36.4106 21.9922 36.4193C23.1988 36.428 24.1146 36.428 24.7396 36.4193C25.3646 36.4106 26.2023 36.3845 27.2526 36.3411C28.3029 36.2977 29.197 36.2109 29.9349 36.0807C30.6727 35.9505 31.2934 35.7899 31.7969 35.599C32.6649 35.2517 33.4288 34.7483 34.0885 34.0885C34.7483 33.4288 35.2517 32.6649 35.599 31.7969C35.7899 31.2934 35.9505 30.6727 36.0807 29.9349C36.2109 29.197 36.2977 28.3029 36.3411 27.2526C36.3845 26.2023 36.4106 25.3646 36.4193 24.7396C36.428 24.1146 36.428 23.1988 36.4193 21.9922C36.4106 20.7856 36.4062 20.1215 36.4062 20C36.4062 19.8785 36.4106 19.2144 36.4193 18.0078C36.428 16.8012 36.428 15.8854 36.4193 15.2604C36.4106 14.6354 36.3845 13.7977 36.3411 12.7474C36.2977 11.697 36.2109 10.803 36.0807 10.0651C35.9505 9.32726 35.7899 8.7066 35.599 8.20312C35.2517 7.33507 34.7483 6.57118 34.0885 5.91146C33.4288 5.25174 32.6649 4.74826 31.7969 4.40104C31.2934 4.21007 30.6727 4.04948 29.9349 3.91927C29.197 3.78906 28.3029 3.70226 27.2526 3.65885C26.2023 3.61545 25.3646 3.58941 24.7396 3.58073C24.1146 3.57205 23.1988 3.57205 21.9922 3.58073C20.7856 3.58941 20.1215 3.59375 20 3.59375ZM40 20C40 23.9757 39.9566 26.7274 39.8698 28.2552C39.6962 31.8663 38.6198 34.6615 36.6406 36.6406C34.6615 38.6198 31.8663 39.6962 28.2552 39.8698C26.7274 39.9566 23.9757 40 20 40C16.0243 40 13.2726 39.9566 11.7448 39.8698C8.13368 39.6962 5.33854 38.6198 3.35938 36.6406C1.38021 34.6615 0.303819 31.8663 0.130208 28.2552C0.0434028 26.7274 0 23.9757 0 20C0 16.0243 0.0434028 13.2726 0.130208 11.7448C0.303819 8.13368 1.38021 5.33854 3.35938 3.35938C5.33854 1.38021 8.13368 0.303819 11.7448 0.130208C13.2726 0.0434028 16.0243 0 20 0C23.9757 0 26.7274 0.0434028 28.2552 0.130208C31.8663 0.303819 34.6615 1.38021 36.6406 3.35938C38.6198 5.33854 39.6962 8.13368 39.8698 11.7448C39.9566 13.2726 40 16.0243 40 20Z" fill="#9ACD2F"/>
</svg>
