<svg width="44" height="28" viewBox="0 0 44 28" fill="none" xmlns="http://www.w3.org/2000/svg">
<path d="M43.0896 11.7722L43.0837 9.88172H41.2386L38.5379 12.5824V6.81836H35.9023V20.0929H38.5379V17.3923L41.2386 20.0929H43.0837L43.0896 18.2025L39.8745 14.9873L43.0896 11.7722Z" fill="#9ACD2F"/>
<path d="M24.8358 12.0566H22.2002V20.0935H24.8358V12.0566Z" fill="#9ACD2F"/>
<path d="M18.8411 12.056H16.1404V6.81836H13.5048V12.056H10.8042V14.6897H13.5048V20.0929H16.1404V14.6897H18.8411V12.056Z" fill="#9ACD2F"/>
<path d="M24.8358 6.78516H22.2002V9.42075H24.8358V6.78516Z" fill="#9ACD2F"/>
<path d="M32.4118 17.4753C31.093 17.4753 30.0226 16.4069 30.0226 15.0861C30.0226 13.7654 31.0911 12.697 32.4118 12.697V10.0791C29.6461 10.0791 27.4048 12.3204 27.4048 15.0861C27.4048 17.8518 29.6461 20.0932 32.4118 20.0932V17.4753Z" fill="#9ACD2F"/>
<path d="M32.4117 6.78513V0H0V12.697C1.31878 12.697 2.38919 13.7654 2.38919 15.0862C2.38919 16.405 1.32075 17.4754 0 17.4754V28H32.4117V23.3892H29.7761V25.3664H2.6356V19.3422C4.05886 18.461 5.00704 16.884 5.00704 15.0862C5.00704 13.2884 4.05886 11.7113 2.6356 10.8302V2.6356H29.7781V6.78513H32.4117Z" fill="#9ACD2F"/>
</svg>
